<svg width="16" height="14" viewBox="0 0 16 14" fill="none" xmlns="http://www.w3.org/2000/svg">
<path fill-rule="evenodd" clip-rule="evenodd" d="M6.83329 9.75008C6.83329 9.75008 5.95829 9.45841 5.95829 8.00008C5.47646 8.00008 5.47646 6.83341 5.95829 6.83341C5.95829 6.638 5.08329 4.50008 6.54163 4.79175C6.83329 3.62508 10.0416 3.62508 10.3333 4.79175C10.5357 5.60141 10.0416 6.68991 10.0416 6.83341C10.5235 6.83341 10.5235 8.00008 10.0416 8.00008C10.0416 9.45841 9.16663 9.75008 9.16663 9.75008V11.2084C10.6115 11.7503 12.0425 12.1983 12.7751 12.7105C13.9698 11.4995 14.7083 9.83583 14.7083 8.00008C14.7083 4.29475 11.7053 1.29175 7.99996 1.29175C4.29463 1.29175 1.29163 4.29475 1.29163 8.00008C1.29163 9.83933 2.03246 11.5053 3.23121 12.7175C4.00704 12.1808 5.53654 11.699 6.83329 11.2084V9.75008V9.75008Z" stroke="white" stroke-linejoin="round"/>
</svg>
