<svg width="50" height="50" viewBox="0 0 50 50" fill="none" xmlns="http://www.w3.org/2000/svg">
<circle opacity="0.195469" cx="25" cy="25" r="25" fill="#9013FE"/>
<path fill-rule="evenodd" clip-rule="evenodd" d="M37.2727 36.9546C37.2727 39.2141 35.4413 41.0455 33.1818 41.0455C30.9222 41.0455 29.0909 39.2141 29.0909 36.9546C29.0909 34.695 30.9222 32.8636 33.1818 32.8636C35.4413 32.8636 37.2727 34.695 37.2727 36.9546V36.9546Z" stroke="#9013FE" stroke-width="1.5" stroke-linecap="round" stroke-linejoin="round"/>
<path fill-rule="evenodd" clip-rule="evenodd" d="M20.9091 36.9546C20.9091 39.2141 19.0777 41.0455 16.8182 41.0455C14.5587 41.0455 12.7273 39.2141 12.7273 36.9546C12.7273 34.695 14.5587 32.8636 16.8182 32.8636C19.0777 32.8636 20.9091 34.695 20.9091 36.9546V36.9546Z" stroke="#9013FE" stroke-width="1.5" stroke-linecap="round" stroke-linejoin="round"/>
<path fill-rule="evenodd" clip-rule="evenodd" d="M32.5 17.1818C32.5 21.3246 29.1427 24.6818 25 24.6818C20.8586 24.6818 17.5 21.3246 17.5 17.1818C17.5 13.0391 20.8586 9.68182 25 9.68182C29.1427 9.68182 32.5 13.0391 32.5 17.1818V17.1818Z" stroke="#9013FE" stroke-width="1.5" stroke-linecap="round" stroke-linejoin="round"/>
<path fill-rule="evenodd" clip-rule="evenodd" d="M29.4318 20.25C29.4318 22.6977 27.4477 24.6818 25 24.6818C22.5523 24.6818 20.5682 22.6977 20.5682 20.25C20.5682 17.8023 22.5523 15.8182 25 15.8182C27.4477 15.8182 29.4318 17.8023 29.4318 20.25V20.25Z" stroke="#9013FE" stroke-width="1.5" stroke-linecap="round" stroke-linejoin="round"/>
<path d="M30.6343 12.1148C31.027 11.0907 32.0211 10.3639 33.1816 10.3639C34.6884 10.3639 35.9088 11.5844 35.9088 13.0912C35.9088 14.5966 34.6884 15.8185 33.1816 15.8185C32.9266 15.8185 32.6784 15.7816 32.4438 15.7176" stroke="#9013FE" stroke-width="1.5" stroke-linecap="round" stroke-linejoin="round"/>
<path d="M17.536 15.7223C17.3082 15.785 17.0669 15.8178 16.8187 15.8178C15.3119 15.8178 14.0914 14.5973 14.0914 13.0905C14.0914 11.585 15.3119 10.3632 16.8187 10.3632C18.0173 10.3632 19.0387 11.1391 19.4028 12.2164" stroke="#9013FE" stroke-width="1.5" stroke-linecap="round" stroke-linejoin="round"/>
<path fill-rule="evenodd" clip-rule="evenodd" d="M25.6818 18.5455C25.6818 18.9218 25.3764 19.2273 25 19.2273C24.6236 19.2273 24.3182 18.9218 24.3182 18.5455C24.3182 18.1691 24.6236 17.8636 25 17.8636C25.3764 17.8636 25.6818 18.1691 25.6818 18.5455V18.5455Z" stroke="#9013FE" stroke-width="1.5" stroke-linecap="round" stroke-linejoin="round"/>
<path d="M20.8026 30.8182C21.5962 29.3155 22.889 28.0909 24.9999 28.0909C27.1149 28.0909 28.409 29.3195 29.2026 30.825" stroke="#9013FE" stroke-width="1.5" stroke-linecap="round" stroke-linejoin="round"/>
<path d="M29.276 38.2237C28.0623 39.1428 26.5883 39.6814 24.9996 39.6814C23.4519 39.6814 22.0119 39.1687 20.816 38.2919" stroke="#9013FE" stroke-width="1.5" stroke-linecap="round" stroke-linejoin="round"/>
<path fill-rule="evenodd" clip-rule="evenodd" d="M21.5909 13.0909C21.2146 13.0909 20.9091 13.3964 20.9091 13.7727C20.9091 14.1491 21.2146 14.4545 21.5909 14.4545C21.9673 14.4545 22.2728 14.1491 22.2728 13.7727C22.2728 13.3964 21.9673 13.0909 21.5909 13.0909Z" fill="#9013FE"/>
<path fill-rule="evenodd" clip-rule="evenodd" d="M28.4091 13.0909C28.0327 13.0909 27.7273 13.3964 27.7273 13.7727C27.7273 14.1491 28.0327 14.4545 28.4091 14.4545C28.7855 14.4545 29.0909 14.1491 29.0909 13.7727C29.0909 13.3964 28.7855 13.0909 28.4091 13.0909Z" fill="#9013FE"/>
<path d="M21.9358 24.0293C21.3358 24.3429 20.7262 24.8939 20.2271 25.3629L14.1644 22.0902C12.8839 21.2966 11.2026 21.692 10.4089 22.9739C9.61667 24.2529 10.0108 25.9329 11.2912 26.7266L17.5694 30.4548C17.4753 31.2539 17.4671 31.9602 17.6021 32.8575" stroke="#9013FE" stroke-width="1.5" stroke-linecap="round" stroke-linejoin="round"/>
<path d="M28.0522 24.0346C28.6522 24.3496 29.2741 24.8937 29.7732 25.3642L35.8359 22.0901C37.1163 21.2965 38.7977 21.6919 39.5913 22.9737C40.385 24.2528 39.9895 25.9342 38.7077 26.7278L32.4309 30.4546C32.5236 31.2537 32.5345 31.9601 32.3982 32.8574" stroke="#9013FE" stroke-width="1.5" stroke-linecap="round" stroke-linejoin="round"/>
</svg>
