<svg width="50" height="50" viewBox="0 0 50 50" fill="none" xmlns="http://www.w3.org/2000/svg">
<circle opacity="0.195469" cx="25" cy="25" r="25" fill="#9013FE"/>
<path fill-rule="evenodd" clip-rule="evenodd" d="M30.625 25.125H26.875V21.375H23.125V25.125H19.375V28.875H23.125V32.625H26.875V28.875H30.625V25.125V25.125Z" stroke="#9013FE" stroke-width="1.5" stroke-linecap="round" stroke-linejoin="round"/>
<path fill-rule="evenodd" clip-rule="evenodd" d="M39.375 18.875C39.375 17.4987 38.2513 16.375 36.875 16.375H13.125C11.75 16.375 10.625 17.4987 10.625 18.875V33.875C10.625 35.25 11.75 36.375 13.125 36.375H36.875C38.2513 36.375 39.375 35.25 39.375 33.875V18.875V18.875Z" stroke="#9013FE" stroke-width="1.5" stroke-linecap="round" stroke-linejoin="round"/>
<path d="M20.625 16.375V14.5C20.625 13.4688 21.4688 12.625 22.5 12.625H27.5C28.5312 12.625 29.375 13.4688 29.375 14.5V16.375" stroke="#9013FE" stroke-width="1.5" stroke-linecap="round" stroke-linejoin="round"/>
</svg>
