<svg width="50" height="50" viewBox="0 0 50 50" fill="none" xmlns="http://www.w3.org/2000/svg">
<circle opacity="0.195469" cx="25" cy="25" r="25" fill="#9013FE"/>
<path d="M26.6376 15.3105C29.1843 13.1634 30.8859 8.32634 29.8387 8.11478C28.4473 7.83357 25.4257 9.06665 23.9652 9.2839C21.8938 9.53491 19.6378 7.02954 18.3714 8.42603C17.3418 9.56148 19.1096 13.6907 21.8754 15.4896C13.6238 19.5599 2.02553 39.993 22.2593 41.4755C50.2561 43.527 36.2371 19.2769 26.6376 15.3105Z" stroke="#9013FE" stroke-width="1.5"/>
<path d="M21.4276 31.462C21.4276 32.9021 22.7241 34.0689 24.3241 34.0689C25.9242 34.0689 27.2207 32.9021 27.2207 31.462C27.2207 30.023 25.9242 28.8552 24.3241 28.8552C22.7241 28.8552 21.4276 27.6883 21.4276 26.2483C21.4276 24.8092 22.7241 23.6414 24.3241 23.6414C25.9242 23.6414 27.2207 24.8092 27.2207 26.2483" stroke="#9013FE" stroke-width="1.5" stroke-linecap="round" stroke-linejoin="round"/>
<path d="M24.3241 20.7448V35.8069" stroke="#9013FE" stroke-width="1.5" stroke-linecap="round" stroke-linejoin="round"/>
</svg>
