<svg width="20" height="20" viewBox="0 0 20 20" fill="none" xmlns="http://www.w3.org/2000/svg">
<path d="M4.375 2.875H3.375C2.27043 2.875 1.375 3.77043 1.375 4.875V16.625C1.375 17.7296 2.27043 18.625 3.375 18.625H16.625C17.7296 18.625 18.625 17.7296 18.625 16.625V4.875C18.625 3.77043 17.7296 2.875 16.625 2.875H15.625" stroke="#9013FE" stroke-linecap="round" stroke-linejoin="round"/>
<path fill-rule="evenodd" clip-rule="evenodd" d="M4.375 4.375H6.625V1.375H4.375V4.375Z" stroke="#9013FE" stroke-linecap="round" stroke-linejoin="round"/>
<path fill-rule="evenodd" clip-rule="evenodd" d="M13.375 4.375H15.625V1.375H13.375V4.375Z" stroke="#9013FE" stroke-linecap="round" stroke-linejoin="round"/>
<path d="M6.625 2.875H13.375" stroke="#9013FE" stroke-linecap="round" stroke-linejoin="round"/>
<path d="M1.375 6.625H18.625" stroke="#9013FE" stroke-linecap="round" stroke-linejoin="round"/>
<path d="M8.125 15.625V9.625L6.625 11.125" stroke="#9013FE" stroke-linecap="round" stroke-linejoin="round"/>
<path d="M6.625 15.625H9.625" stroke="#9013FE" stroke-linecap="round" stroke-linejoin="round"/>
<path d="M11.5 15.625L13.75 9.625H10V10.375" stroke="#9013FE" stroke-linecap="round" stroke-linejoin="round"/>
<path d="M11.125 12.625H13.375" stroke="#9013FE" stroke-linecap="round" stroke-linejoin="round"/>
</svg>
